<mxfile host="app.diagrams.net" agent="Mozilla/5.0 (Macintosh; Intel Mac OS X 10_15_7) AppleWebKit/537.36 (KHTML, like Gecko) Chrome/132.0.0.0 Safari/537.36" version="25.0.3">
  <diagram name="Page-1" id="_xF8HN4BfEeanLuXEc2u">
    <mxGraphModel dx="1749" dy="1106" grid="1" gridSize="10" guides="1" tooltips="1" connect="1" arrows="1" fold="1" page="1" pageScale="1" pageWidth="850" pageHeight="1100" math="0" shadow="0">
      <root>
        <mxCell id="0" />
        <mxCell id="1" parent="0" />
        <mxCell id="XgpJlwbP99mgxgBaGOj1-1" value="" style="shape=image;verticalLabelPosition=bottom;labelBackgroundColor=default;verticalAlign=top;aspect=fixed;imageAspect=0;image=https://m.media-amazon.com/images/I/619z4FnnfTL._AC_SL1500_.jpg;" vertex="1" parent="1">
          <mxGeometry x="320" y="170" width="590" height="575.25" as="geometry" />
        </mxCell>
        <mxCell id="XgpJlwbP99mgxgBaGOj1-2" value="" style="shape=image;verticalLabelPosition=bottom;labelBackgroundColor=default;verticalAlign=top;aspect=fixed;imageAspect=0;image=https://m.media-amazon.com/images/I/61oEXr9paJL._AC_SL1500_.jpg;" vertex="1" parent="1">
          <mxGeometry x="954" y="267.63" width="642.25" height="380" as="geometry" />
        </mxCell>
        <mxCell id="XgpJlwbP99mgxgBaGOj1-4" value="Drive in X-Y" style="rounded=1;whiteSpace=wrap;html=1;fontSize=20;fillColor=#d5e8d4;strokeColor=#82b366;" vertex="1" parent="1">
          <mxGeometry x="180" y="370" width="130" height="50" as="geometry" />
        </mxCell>
        <mxCell id="XgpJlwbP99mgxgBaGOj1-8" value="" style="endArrow=classic;html=1;rounded=0;strokeWidth=3;strokeColor=#d6e8d5;" edge="1" parent="1">
          <mxGeometry width="50" height="50" relative="1" as="geometry">
            <mxPoint x="310" y="400" as="sourcePoint" />
            <mxPoint x="390" y="440" as="targetPoint" />
          </mxGeometry>
        </mxCell>
        <mxCell id="XgpJlwbP99mgxgBaGOj1-9" value="Cartesian Y" style="rounded=1;whiteSpace=wrap;html=1;fontSize=20;fillColor=#d5e8d4;strokeColor=#82b366;" vertex="1" parent="1">
          <mxGeometry x="180" y="525" width="130" height="50" as="geometry" />
        </mxCell>
        <mxCell id="XgpJlwbP99mgxgBaGOj1-10" value="" style="endArrow=classic;html=1;rounded=0;strokeWidth=3;strokeColor=#d6e8d5;entryX=0.271;entryY=0.643;entryDx=0;entryDy=0;entryPerimeter=0;" edge="1" parent="1" target="XgpJlwbP99mgxgBaGOj1-1">
          <mxGeometry width="50" height="50" relative="1" as="geometry">
            <mxPoint x="310" y="550" as="sourcePoint" />
            <mxPoint x="390" y="590" as="targetPoint" />
          </mxGeometry>
        </mxCell>
        <mxCell id="XgpJlwbP99mgxgBaGOj1-11" value="" style="endArrow=classic;html=1;rounded=0;strokeWidth=3;strokeColor=#d6e8d5;exitX=0.5;exitY=0;exitDx=0;exitDy=0;" edge="1" parent="1" source="XgpJlwbP99mgxgBaGOj1-12">
          <mxGeometry width="50" height="50" relative="1" as="geometry">
            <mxPoint x="555.63" y="654.75" as="sourcePoint" />
            <mxPoint x="534.3605782192268" y="590" as="targetPoint" />
          </mxGeometry>
        </mxCell>
        <mxCell id="XgpJlwbP99mgxgBaGOj1-12" value="Cartesian Z" style="rounded=1;whiteSpace=wrap;html=1;fontSize=20;fillColor=#d5e8d4;strokeColor=#82b366;" vertex="1" parent="1">
          <mxGeometry x="470" y="680" width="130" height="50" as="geometry" />
        </mxCell>
        <mxCell id="XgpJlwbP99mgxgBaGOj1-13" value="Drill&amp;nbsp;&lt;div&gt;(press)&lt;/div&gt;" style="rounded=1;whiteSpace=wrap;html=1;fontSize=20;fillColor=#d5e8d4;strokeColor=#82b366;" vertex="1" parent="1">
          <mxGeometry x="650" y="670" width="100" height="70" as="geometry" />
        </mxCell>
        <mxCell id="XgpJlwbP99mgxgBaGOj1-14" value="" style="endArrow=classic;html=1;rounded=0;strokeWidth=3;strokeColor=#d6e8d5;exitX=0.5;exitY=0;exitDx=0;exitDy=0;" edge="1" parent="1" source="XgpJlwbP99mgxgBaGOj1-13">
          <mxGeometry width="50" height="50" relative="1" as="geometry">
            <mxPoint x="700.64" y="665" as="sourcePoint" />
            <mxPoint x="700.0005782192268" y="575" as="targetPoint" />
          </mxGeometry>
        </mxCell>
        <mxCell id="XgpJlwbP99mgxgBaGOj1-15" value="&amp;nbsp; Y - Emergency Stop&lt;div&gt;&amp;nbsp; X - Take picture&lt;/div&gt;&lt;div&gt;&amp;nbsp; A - Run autonomous mode&lt;/div&gt;&lt;div&gt;&amp;nbsp; B - Check battery level&lt;/div&gt;" style="rounded=1;whiteSpace=wrap;html=1;fontSize=20;fillColor=#d5e8d4;strokeColor=#82b366;align=left;" vertex="1" parent="1">
          <mxGeometry x="780" y="575" width="259" height="130" as="geometry" />
        </mxCell>
        <mxCell id="XgpJlwbP99mgxgBaGOj1-17" value="Reset Nucleo" style="rounded=1;whiteSpace=wrap;html=1;fontSize=20;fillColor=#d5e8d4;strokeColor=#82b366;" vertex="1" parent="1">
          <mxGeometry x="470" y="217.63" width="130" height="50" as="geometry" />
        </mxCell>
        <mxCell id="XgpJlwbP99mgxgBaGOj1-18" value="" style="endArrow=classic;html=1;rounded=0;strokeWidth=3;strokeColor=#d6e8d5;exitX=0.5;exitY=1;exitDx=0;exitDy=0;" edge="1" parent="1" source="XgpJlwbP99mgxgBaGOj1-20">
          <mxGeometry width="50" height="50" relative="1" as="geometry">
            <mxPoint x="350" y="300" as="sourcePoint" />
            <mxPoint x="430" y="340" as="targetPoint" />
          </mxGeometry>
        </mxCell>
        <mxCell id="XgpJlwbP99mgxgBaGOj1-20" value="Print Pose" style="rounded=1;whiteSpace=wrap;html=1;fontSize=20;fillColor=#d5e8d4;strokeColor=#82b366;" vertex="1" parent="1">
          <mxGeometry x="295" y="217.63" width="130" height="50" as="geometry" />
        </mxCell>
        <mxCell id="XgpJlwbP99mgxgBaGOj1-21" value="Send Removal Command" style="rounded=1;whiteSpace=wrap;html=1;fontSize=20;fillColor=#d5e8d4;strokeColor=#82b366;" vertex="1" parent="1">
          <mxGeometry x="790" y="211.44" width="160" height="62.37" as="geometry" />
        </mxCell>
        <mxCell id="XgpJlwbP99mgxgBaGOj1-22" value="Misc. Test" style="rounded=1;whiteSpace=wrap;html=1;fontSize=20;fillColor=#d5e8d4;strokeColor=#82b366;" vertex="1" parent="1">
          <mxGeometry x="640" y="217.63" width="130" height="50" as="geometry" />
        </mxCell>
        <mxCell id="XgpJlwbP99mgxgBaGOj1-23" value="Zero-Point Turning" style="rounded=1;whiteSpace=wrap;html=1;fontSize=20;fillColor=#d5e8d4;strokeColor=#82b366;" vertex="1" parent="1">
          <mxGeometry x="1400" y="570" width="160" height="62.37" as="geometry" />
        </mxCell>
        <mxCell id="XgpJlwbP99mgxgBaGOj1-24" value="" style="endArrow=classic;html=1;rounded=0;strokeWidth=3;strokeColor=#d6e8d5;exitX=0.5;exitY=1;exitDx=0;exitDy=0;" edge="1" parent="1" source="XgpJlwbP99mgxgBaGOj1-17">
          <mxGeometry width="50" height="50" relative="1" as="geometry">
            <mxPoint x="460" y="340" as="sourcePoint" />
            <mxPoint x="540" y="380" as="targetPoint" />
          </mxGeometry>
        </mxCell>
        <mxCell id="XgpJlwbP99mgxgBaGOj1-25" value="" style="endArrow=classic;html=1;rounded=0;strokeWidth=3;strokeColor=#d6e8d5;exitX=0.5;exitY=1;exitDx=0;exitDy=0;" edge="1" parent="1" source="XgpJlwbP99mgxgBaGOj1-22">
          <mxGeometry width="50" height="50" relative="1" as="geometry">
            <mxPoint x="690" y="267.63" as="sourcePoint" />
            <mxPoint x="695" y="379.63" as="targetPoint" />
          </mxGeometry>
        </mxCell>
        <mxCell id="XgpJlwbP99mgxgBaGOj1-26" value="" style="endArrow=classic;html=1;rounded=0;strokeWidth=3;strokeColor=#d6e8d5;exitX=0.5;exitY=1;exitDx=0;exitDy=0;" edge="1" parent="1" source="XgpJlwbP99mgxgBaGOj1-21">
          <mxGeometry width="50" height="50" relative="1" as="geometry">
            <mxPoint x="800" y="230" as="sourcePoint" />
            <mxPoint x="805" y="342" as="targetPoint" />
          </mxGeometry>
        </mxCell>
        <mxCell id="XgpJlwbP99mgxgBaGOj1-27" value="" style="endArrow=classic;html=1;rounded=0;strokeWidth=3;strokeColor=#d6e8d5;exitX=0.5;exitY=0;exitDx=0;exitDy=0;" edge="1" parent="1" source="XgpJlwbP99mgxgBaGOj1-23">
          <mxGeometry width="50" height="50" relative="1" as="geometry">
            <mxPoint x="1310" y="480" as="sourcePoint" />
            <mxPoint x="1315" y="592" as="targetPoint" />
          </mxGeometry>
        </mxCell>
        <mxCell id="XgpJlwbP99mgxgBaGOj1-28" value="" style="endArrow=classic;html=1;rounded=0;strokeWidth=3;strokeColor=#d6e8d5;exitX=0.5;exitY=0;exitDx=0;exitDy=0;" edge="1" parent="1" source="XgpJlwbP99mgxgBaGOj1-23">
          <mxGeometry width="50" height="50" relative="1" as="geometry">
            <mxPoint x="1470" y="560" as="sourcePoint" />
            <mxPoint x="1510" y="480" as="targetPoint" />
          </mxGeometry>
        </mxCell>
      </root>
    </mxGraphModel>
  </diagram>
</mxfile>
